<svg xmlns="http://www.w3.org/2000/svg" width="769.043" height="234.218" viewBox="0 0 769.043 234.218">
  <g id="LogoBig" transform="translate(0 0)">
    <g id="Group_571" data-name="Group 571" transform="translate(0 0)">
      <path id="Path_1" data-name="Path 1" d="M442.108,86.135,399.833,44.175h6.842a10.672,10.672,0,0,0,7.735-3.2,10.532,10.532,0,0,0,3.2-7.735v-21.8a10.541,10.541,0,0,0-3.2-7.735,10.68,10.68,0,0,0-7.735-3.2H327.6V71.407h21.8V44.175h23.2l42.275,41.959ZM349.4,27.811V16.879H390.31a5.455,5.455,0,0,1,5.432,5.435,5.3,5.3,0,0,1-1.6,3.9,5.223,5.223,0,0,1-3.835,1.6Zm-58.457,43.6a21,21,0,0,0,15.406-6.393A20.754,20.754,0,0,0,312.8,49.608V.514H290.941V44.175a10.8,10.8,0,0,1-10.867,10.867H255.526A10.8,10.8,0,0,1,244.6,44.175V.514H222.8V49.608a20.992,20.992,0,0,0,6.393,15.406A20.855,20.855,0,0,0,244.6,71.407Zm-104.8,0a21.827,21.827,0,0,0,21.8-21.8V22.313a21,21,0,0,0-6.393-15.406A21,21,0,0,0,186.139.514H134.3A20.992,20.992,0,0,0,118.89,6.907,20.992,20.992,0,0,0,112.5,22.313V49.608a20.992,20.992,0,0,0,6.393,15.406A20.855,20.855,0,0,0,134.3,71.407ZM145.227,55.042A10.8,10.8,0,0,1,134.3,44.175V27.811a10.909,10.909,0,0,1,10.93-10.932h29.98a10.682,10.682,0,0,1,7.737,3.2,10.546,10.546,0,0,1,3.2,7.737V44.175a10.676,10.676,0,0,1-3.2,7.735,10.791,10.791,0,0,1-7.737,3.132ZM78.589,71.407a21.827,21.827,0,0,0,21.8-21.8,21.822,21.822,0,0,0-21.8-21.8H54.041V44.175H73.091a5.451,5.451,0,0,1,3.9,1.6,5.231,5.231,0,0,1,1.6,3.835,5.442,5.442,0,0,1-1.6,3.9,5.568,5.568,0,0,1-3.9,1.535H45.86A10.808,10.808,0,0,1,34.927,44.175V27.811A10.913,10.913,0,0,1,45.86,16.879h51.78V.514H34.927A21,21,0,0,0,19.521,6.907a21,21,0,0,0-6.393,15.406V49.608a21,21,0,0,0,6.393,15.406,20.863,20.863,0,0,0,15.406,6.393Z" transform="translate(21.141 0.827)" fill="#eb3b1d"/>
      <path id="Path_2" data-name="Path 2" d="M453.232,72.235V17.706h35.48V1.342H396.02V17.706h35.415V72.235Zm-63.889,0V55.87H336.156a5.34,5.34,0,0,1-3.835-1.535,5.442,5.442,0,0,1-1.6-3.9V45h55.935V28.639H330.724v-5.5a5.455,5.455,0,0,1,5.432-5.435H388V1.342H330.724a20.992,20.992,0,0,0-15.406,6.393,20.992,20.992,0,0,0-6.393,15.406V50.435a20.992,20.992,0,0,0,6.393,15.406,20.855,20.855,0,0,0,15.406,6.393Zm-193.466,0v-45a2.746,2.746,0,0,1,.767-1.919,2.818,2.818,0,0,1,1.981-.767,2.9,2.9,0,0,1,1.023.193,2.5,2.5,0,0,1,.9.574l12.592,25.122,10.932,21.8h20.009l23.46-46.922h.065a2.6,2.6,0,0,1,.83-.574,3.057,3.057,0,0,1,1.086-.193,2.746,2.746,0,0,1,1.919.767,2.639,2.639,0,0,1,.83,1.919v45h21.8V19.048A18.406,18.406,0,0,0,288.441,5.56,18.369,18.369,0,0,0,274.953,0h-1.344a21,21,0,0,0-15.4,6.39,21.225,21.225,0,0,0-5.179,7.865L234.04,52.289,215.055,14.255a21.669,21.669,0,0,0-5.114-7.865A21,21,0,0,0,194.535,0h-1.407A18.5,18.5,0,0,0,179.64,5.56a18.5,18.5,0,0,0-5.563,13.488V72.235Z" transform="translate(280.331 0)" fill="#eb3b1d"/>
      <path id="Path_3" data-name="Path 3" d="M90.862,84.461,124.933,50.39H99.043L74.5,74.936,27.232,27.672H0L56.789,84.461,19.967,121.283H47.2L73.793,94.688l49.274,49.274h27.3Zm65.059,36.822H213.2V104.916H166.853a10.8,10.8,0,0,1-10.932-10.867V77.684a10.913,10.913,0,0,1,10.932-10.93H213.2V50.39H155.921a21.818,21.818,0,0,0-21.8,21.8v27.3a21.822,21.822,0,0,0,21.8,21.8m137.533,0h21.862V50.39H293.454V77.684H247.107V50.39h-21.8v70.893h21.8V94.049h46.347Zm99.268-27.234H363.893l13.039-22.82a2.481,2.481,0,0,1,1.407-.384,2.36,2.36,0,0,1,1.342.384Zm15.6,27.234h23.974l-34.2-59.835a22.444,22.444,0,0,0-4.346-6.009,21.837,21.837,0,0,0-30.876,0,22.454,22.454,0,0,0-4.349,6.009l-34.136,59.835h23.909l9.335-16.367h41.359ZM534.4,117.062a18.264,18.264,0,0,0,5.625-13.488V50.39h-21.8V98.142a2.626,2.626,0,0,1-.833,1.916,2.74,2.74,0,0,1-1.916.767,3.056,3.056,0,0,1-1.086-.191.938.938,0,0,1-.449-.256L478.019,57.292c-.128-.17-.256-.339-.384-.512l-.83-.958h-.063l-.384-.384a20.954,20.954,0,0,0-14.065-6.393h-21.8v72.237h21.8V66.259c1.908,2.3,4.145,4.986,4.218,5.033l9.846,11.828,26.08,31.259a4.629,4.629,0,0,0,.449.512l.765.958h.065a2.207,2.207,0,0,0,.446.449,21.109,21.109,0,0,0,15.406,6.328h1.342a18.367,18.367,0,0,0,13.49-5.563m84.344-21.413a5.231,5.231,0,0,1,1.6,3.835,5.447,5.447,0,0,1-1.6,3.9,5.561,5.561,0,0,1-3.9,1.532H587.616a10.8,10.8,0,0,1-10.932-10.867V77.684a10.913,10.913,0,0,1,10.932-10.93H639.4V50.39H576.684a21.822,21.822,0,0,0-21.8,21.8v27.3a21.827,21.827,0,0,0,21.8,21.8h43.661a21.827,21.827,0,0,0,21.8-21.8,21.827,21.827,0,0,0-21.8-21.8H595.8V94.049h19.048a5.449,5.449,0,0,1,3.9,1.6m57.306,3.835V94.049h58.1V77.684h-58.1v-5.5a5.454,5.454,0,0,1,5.435-5.432h52.25V50.39H676.053a21.822,21.822,0,0,0-21.8,21.8v27.3a21.827,21.827,0,0,0,21.8,21.8h58.1V104.916H681.488a5.339,5.339,0,0,1-3.837-1.532,5.447,5.447,0,0,1-1.6-3.9" transform="translate(0 44.562)" fill="#1a1818"/>
      <text id="KA" transform="translate(273.101 226.218)" fill="#1a1818" font-size="32" font-family="AcuminProWide-Medium, Acumin Pro Wide" font-weight="500"><tspan x="0" y="0" letter-spacing="0.7em">K</tspan><tspan y="0">A</tspan></text>
      <text id="L" transform="translate(372.355 223.218)" fill="#1a1818" font-size="29" font-family="AcuminProWide-Medium, Acumin Pro Wide" font-weight="500"><tspan x="0" y="0">L</tspan></text>
      <text id="L-2" data-name="L" transform="translate(417.866 223.218)" fill="#1a1818" font-size="29" font-family="AcuminProWide-Medium, Acumin Pro Wide" font-weight="500"><tspan x="0" y="0">L</tspan></text>
      <text id="A" transform="translate(465.034 225.218)" fill="#1a1818" font-size="31" font-family="AcuminProWide-Medium, Acumin Pro Wide" font-weight="500"><tspan x="0" y="0">A</tspan></text>
      <text id="N" transform="translate(515.052 226.218)" fill="#1a1818" font-size="32" font-family="AcuminProWide-Medium, Acumin Pro Wide" font-weight="500"><tspan x="0" y="0">N</tspan></text>
      <text id="G" transform="translate(567.642 226.218)" fill="#1a1818" font-size="32" font-family="AcuminProWide-Medium, Acumin Pro Wide" font-weight="500"><tspan x="0" y="0">G</tspan></text>
    </g>
  </g>
</svg>
